<svg width="28" height="21" viewBox="0 0 28 21" fill="none" xmlns="http://www.w3.org/2000/svg">
<path d="M22.0391 0.0996094C23.282 -0.0312785 25.9881 -0.0320295 27.2354 0.0898438C28.3234 0.193695 27.9831 1.0521 27.8105 1.82422C27.3753 3.74274 26.7755 5.66404 26.2598 7.58594C25.9722 8.65751 25.6938 10.0524 24.5947 10.2041H19.8994L23.4404 19.4219C23.441 19.4233 23.4414 19.4247 23.4424 19.4258C23.4441 19.4276 23.4459 19.4302 23.4463 19.4326C23.5114 19.8817 23.4043 20.1424 22.9502 20.1875C21.8489 20.3004 19.1594 20.3091 18.0713 20.1826C16.9264 20.0486 16.3989 18.7464 16.0049 17.6631C15.2108 15.4794 14.3824 12.7388 14.0908 12.0371C14.0467 11.9334 14.0331 11.8662 13.9756 11.8662C13.9183 11.8663 13.8961 11.9424 13.8564 12.0459C13.0603 14.15 12.4406 16.9 11.4941 18.8506C11.1624 19.5278 10.6094 20.0968 9.83984 20.1826C8.67641 20.309 6.14719 20.2864 4.96191 20.1826C4.54618 20.1465 4.33421 19.8174 4.45801 19.4336L8.04688 10.2041H3.40527C2.30622 10.0525 2.0278 8.65749 1.74023 7.58594C1.22445 5.66405 0.624734 3.74274 0.189453 1.82422C0.016957 1.05211 -0.323402 0.193695 0.764648 0.0898438C2.01204 -0.0320447 4.71914 -0.0313251 5.96191 0.0996094C6.60291 0.162927 6.94338 0.451752 7.17773 1.05664L9.00098 7.75L11.4062 1.56641C12.5209 -0.578261 15.5591 -0.501161 16.625 1.67969L18.9805 7.81348L20.8223 1.05664C21.0567 0.451592 21.3977 0.162824 22.0391 0.0996094Z" fill="url(#paint0_linear_153314_2054)"/>
<defs>
<linearGradient id="paint0_linear_153314_2054" x1="4.42243" y1="10.1374" x2="23.4633" y2="10.1374" gradientUnits="userSpaceOnUse">
<stop stop-color="#52BBF5"/>
<stop offset="1" stop-color="#922CF7"/>
</linearGradient>
</defs>
</svg>
