<svg width="" height="" viewBox="0 0 22 22" fill="none" xmlns="http://www.w3.org/2000/svg">
<path d="M9.5 10.5V8L13.6667 11.3334L9.5 14.6667V12.1667H2V10.5H9.5ZM3.21484 13.8334H4.9846C5.97358 16.2765 8.36885 18 11.1667 18C14.8486 18 17.8333 15.0153 17.8333 11.3334C17.8333 7.65143 14.8486 4.66666 11.1667 4.66666C8.36885 4.66666 5.97358 6.39014 4.9846 8.83333H3.21484C4.27673 5.4524 7.4353 3 11.1667 3C15.769 3 19.5 6.73095 19.5 11.3334C19.5 15.9357 15.769 19.6667 11.1667 19.6667C7.4353 19.6667 4.27673 17.2143 3.21484 13.8334Z" fill=""/>
</svg>
