<svg width="" height="" viewBox="0 0 62 45" fill="none" xmlns="http://www.w3.org/2000/svg">
<path d="M20.6243 19.3193L15.8943 2.29367C15.3753 0.980239 14.6212 0.352928 13.2012 0.215704C10.4493 -0.0685465 4.45598 -0.0685465 1.69433 0.1961C-0.714763 0.42154 0.0393039 2.28387 0.421234 3.95997C1.65516 9.29211 3.48647 14.6341 4.75956 19.976C5.18067 20.9758 6.45377 22.005 7.5408 22.152H19.1064C20.2914 22.152 21.1336 21.015 20.8006 19.878L20.6341 19.3291L20.6243 19.3193Z" fill="url(#paint0_linear_1034_17573)"/>
<path d="M41.3759 19.3193L46.106 2.29367C46.625 0.980239 47.3791 0.352928 48.7991 0.215704C51.5509 -0.0685465 57.5443 -0.0685465 60.3059 0.1961C62.715 0.42154 61.9609 2.28387 61.579 3.95997C60.3451 9.29211 58.5138 14.6341 57.2407 19.976C56.8196 20.9758 55.5465 22.005 54.4594 22.152H42.8938C41.7089 22.152 40.8667 21.015 41.1996 19.878L41.3661 19.3291L41.3759 19.3193Z" fill="url(#paint1_linear_1034_17573)"/>
<path d="M51.9033 42.1673L36.8122 3.64646C34.452 -1.08777 27.7242 -1.2544 25.2563 3.40142L9.87141 42.1869C9.59721 43.02 10.0673 43.7356 10.9878 43.814C13.6124 44.0394 19.214 44.0884 21.7896 43.814C23.4936 43.6277 24.7177 42.3927 25.4522 40.9225C27.5479 36.6881 28.9189 30.7189 30.6817 26.1513C30.7698 25.9258 30.8188 25.7592 30.9461 25.7592C31.0734 25.7592 31.1028 25.9062 31.2007 26.1316C32.0233 28.0724 34.7752 37.1978 36.8415 41.8536C37.6348 42.824 38.7316 43.667 40.0145 43.814C42.4236 44.0884 48.3778 44.0688 50.8163 43.8238C51.8249 43.7258 52.06 43.1573 51.9131 42.1771L51.9033 42.1673Z" fill="url(#paint2_linear_1034_17573)"/>
<defs>
<linearGradient id="paint0_linear_1034_17573" x1="4.22091" y1="18.8038" x2="19.4002" y2="18.8038" gradientUnits="userSpaceOnUse">
<stop stop-color="#0656C7"/>
<stop offset="1" stop-color="#18368E"/>
</linearGradient>
<linearGradient id="paint1_linear_1034_17573" x1="57.7793" y1="18.8038" x2="42.6001" y2="18.8038" gradientUnits="userSpaceOnUse">
<stop stop-color="#0656C7"/>
<stop offset="1" stop-color="#18368E"/>
</linearGradient>
<linearGradient id="paint2_linear_1034_17573" x1="30.8734" y1="15.4576" x2="30.8734" y2="43.8827" gradientUnits="userSpaceOnUse">
<stop stop-color="#0077FF"/>
<stop offset="1" stop-color="#0262CF"/>
</linearGradient>
</defs>
</svg>
