<svg width="" height="" viewBox="0 0 159 23" fill="none" xmlns="http://www.w3.org/2000/svg">
<g clip-path="url(#clip0_153367_925)">
<path d="M152.175 22.9706C149.302 22.9706 145.93 21.0977 144.994 18.7255L147.461 17.5706C148.335 19.4122 150.864 20.3174 152.175 20.3174C154.486 20.3174 155.641 19.6619 155.641 18.3822C155.641 16.5405 152.581 16.4781 150.364 15.7602C147.741 14.9487 145.93 13.544 145.93 11.2654C145.93 8.30015 148.803 6.08398 152.082 6.08398C154.704 6.08398 157.577 7.4886 158.732 10.2042L156.327 11.5464C155.266 9.64233 153.486 9.01806 152.082 8.95564C150.208 8.86199 149.053 9.76719 149.053 11.0157C149.053 12.1707 150.271 12.7325 152.799 13.2943C156.452 14.0434 158.825 15.1983 158.825 18.07C158.825 21.0665 156.452 22.9706 152.175 22.9706Z" fill=""/>
<path d="M132.518 22.5644H129.521V0.714844H132.518V10.9217L136.327 6.73906H140.261L135.421 11.702L142.79 22.5644H139.137L133.486 14.1679L132.518 15.3229V22.5644Z" fill=""/>
<path d="M119.668 22.5636H116.64V15.2284C116.64 9.766 119.856 6.73828 125.039 6.73828V9.766C121.792 9.766 119.668 11.7324 119.668 15.1971V22.5636Z" fill=""/>
<path d="M104.378 22.8754C99.6319 22.8754 96.2288 19.1921 96.2288 14.6662C96.2288 9.95292 99.7256 6.42578 104.378 6.42578C109.123 6.42578 112.526 10.0153 112.526 14.6662C112.526 19.317 108.998 22.8754 104.378 22.8754ZM104.378 19.8164C107.437 19.8164 109.498 17.6627 109.498 14.6662C109.498 11.6384 107.375 9.48472 104.378 9.48472C101.381 9.48472 99.2885 11.6696 99.2885 14.6662C99.2885 17.6939 101.381 19.8164 104.378 19.8164Z" fill=""/>
<path d="M75.0671 22.5644H72.5694L64.1082 0.714844H67.3865L73.7558 17.3205L79.5006 0.714844H81.9047L87.431 17.3517L94.0813 0.714844H97.3596L88.555 22.5644H86.0885L80.6558 6.89513L75.0671 22.5644Z" fill=""/>
<path d="M57.8562 4.96062C56.8259 4.96062 56.0142 4.14907 56.0142 3.11902C56.0142 2.12018 56.8259 1.33984 57.8562 1.33984C58.8242 1.33984 59.6671 2.12018 59.6671 3.11902C59.6671 4.11785 58.8554 4.96062 57.8562 4.96062ZM59.3549 22.5651H56.3264V6.73979H59.3549V22.5651Z" fill=""/>
<path d="M47.3839 22.9706C44.5115 22.9706 41.1396 21.0977 40.2029 18.7255L42.6694 17.5706C43.5436 19.4122 46.0726 20.3174 47.3839 20.3174C49.6943 20.3174 50.8495 19.6619 50.8495 18.3822C50.8495 16.5405 47.7898 16.4781 45.573 15.7602C42.9504 14.9487 41.1395 13.544 41.1395 11.2654C41.1395 8.30015 44.0119 6.08398 47.2903 6.08398C49.9129 6.08398 52.7854 7.4886 53.9405 10.2042L51.5365 11.5464C50.4749 9.64233 48.6953 9.01806 47.2903 8.95564C45.4169 8.86199 44.2617 9.76719 44.2617 11.0157C44.2617 12.1707 45.4794 12.7325 48.0084 13.2943C51.6613 14.0434 54.0342 15.1983 54.0342 18.07C54.0342 21.0665 51.6613 22.9706 47.3839 22.9706Z" fill=""/>
<path d="M31.9784 22.9706C29.106 22.9706 25.734 21.0977 24.7974 18.7255L27.264 17.5706C28.1382 19.4122 30.6671 20.3174 31.9784 20.3174C34.2889 20.3174 35.444 19.6619 35.444 18.3822C35.444 16.5405 32.3844 16.4781 30.1675 15.7602C27.5449 14.9487 25.734 13.544 25.734 11.2654C25.734 8.30015 28.6065 6.08398 31.8847 6.08398C34.5075 6.08398 37.3798 7.4886 38.5351 10.2042L36.1309 11.5464C35.0694 9.64233 33.2898 9.01806 31.8847 8.95564C30.0114 8.86199 28.8563 9.76719 28.8563 11.0157C28.8563 12.1707 30.0739 12.7325 32.6028 13.2943C36.2559 14.0434 38.6287 15.1983 38.6287 18.07C38.6287 21.0665 36.2559 22.9706 31.9784 22.9706Z" fill=""/>
<path d="M3.37197 22.564H0L11.2012 0H12.5178L23.7287 22.564H20.3568L16.4852 14.7606H7.2435L3.37197 22.564ZM11.8644 5.45896L8.74216 11.7329H14.9865L11.8644 5.45896Z" fill=""/>
</g>
<defs>
<clipPath id="clip0_153367_925">
<rect width="158.91" height="22.9808" fill="white"/>
</clipPath>
</defs>
</svg>
