<svg width="" height="" viewBox="0 0 112 81" fill="none" xmlns="http://www.w3.org/2000/svg">
<g clip-path="url(#clip0_159352_5176)">
<path d="M37.4049 35.3562L28.919 4.20107C27.9878 1.79763 26.635 0.649725 24.0874 0.39862C19.1504 -0.121526 8.39798 -0.121526 3.44341 0.362749C-0.878654 0.775278 0.474185 4.18315 1.15939 7.25019C3.37313 17.0074 6.6586 26.7826 8.94263 36.5579C9.69809 38.3872 11.9821 40.2706 13.9323 40.5397H34.6816C36.8078 40.5397 38.3184 38.459 37.7213 36.3783L37.4226 35.3739L37.4049 35.3562Z" fill="url(#paint0_linear_159352_5176)"/>
<path d="M74.6334 35.3561L83.1193 4.20107C84.0506 1.79763 85.4033 0.649724 87.9509 0.398618C92.888 -0.121526 103.64 -0.121526 108.595 0.362748C112.917 0.775277 111.564 4.18314 110.879 7.25021C108.665 17.0074 105.38 26.7826 103.096 36.5578C102.34 38.3872 100.056 40.2705 98.106 40.5396H77.3567C75.2309 40.5396 73.7199 38.4589 74.317 36.3782L74.6157 35.3739L74.6334 35.3561Z" fill="url(#paint1_linear_159352_5176)"/>
<path d="M93.5217 77.1634L66.4475 6.67472C62.2132 -1.98839 50.1431 -2.2933 45.7155 6.22634L18.114 77.1993C17.6221 78.724 18.4654 80.0333 20.1169 80.1767C24.8255 80.5892 34.8751 80.679 39.496 80.1767C42.5531 79.8359 44.7492 77.5759 46.0668 74.8856C49.8267 67.1372 52.2863 56.2142 55.4488 47.8559C55.607 47.4434 55.695 47.1384 55.9231 47.1384C56.1516 47.1384 56.2044 47.4075 56.3801 47.82C57.8559 51.3715 62.793 68.0698 66.5 76.5897C67.923 78.3651 69.8909 79.9076 72.1924 80.1767C76.5146 80.679 87.1968 80.6432 91.5715 80.1948C93.3812 80.0152 93.8027 78.975 93.5395 77.1815L93.5217 77.1634Z" fill="url(#paint2_linear_159352_5176)"/>
</g>
<defs>
<linearGradient id="paint0_linear_159352_5176" x1="7.97623" y1="34.4129" x2="35.2088" y2="34.4129" gradientUnits="userSpaceOnUse">
<stop stop-color="white"/>
<stop offset="1" stop-color="#BEBEBE"/>
</linearGradient>
<linearGradient id="paint1_linear_159352_5176" x1="104.062" y1="34.4128" x2="76.8295" y2="34.4128" gradientUnits="userSpaceOnUse">
<stop stop-color="white"/>
<stop offset="1" stop-color="#BEBEBE"/>
</linearGradient>
<linearGradient id="paint2_linear_159352_5176" x1="55.7928" y1="28.2878" x2="55.7928" y2="80.3024" gradientUnits="userSpaceOnUse">
<stop stop-color="white"/>
<stop offset="1" stop-color="#ADADAD"/>
</linearGradient>
<clipPath id="clip0_159352_5176">
<rect width="112" height="80.4364" fill="white"/>
</clipPath>
</defs>
</svg>
