<svg width="" height="" viewBox="0 0 34 34" fill="none" xmlns="http://www.w3.org/2000/svg">
<path fill-rule="evenodd" clip-rule="evenodd" d="M7.08325 21.25C6.49645 21.25 6.02075 21.7257 6.02075 22.3125V25.5H7.08325C6.02075 25.5 6.02075 25.5026 6.02075 25.5026L6.02077 25.5051L6.02079 25.5106L6.02098 25.5228L6.0218 25.5523C6.02262 25.574 6.02402 25.6 6.02638 25.6302C6.03105 25.6904 6.03951 25.7669 6.05458 25.8573C6.08473 26.0383 6.14151 26.2755 6.24794 26.5492C6.46316 27.1027 6.87244 27.7813 7.63137 28.4318C9.14167 29.7263 11.9145 30.8125 16.9999 30.8125C22.0853 30.8125 24.8582 29.7263 26.3685 28.4318C27.1274 27.7813 27.5367 27.1027 27.7519 26.5492C27.8584 26.2755 27.9151 26.0383 27.9452 25.8573C27.9604 25.7669 27.9687 25.6904 27.9734 25.6302C27.9758 25.6 27.9772 25.574 27.9781 25.5523L27.9788 25.5228L27.9791 25.5106V25.5051V25.5026C27.9791 25.5026 27.9791 25.5 26.9166 25.5H27.9791V22.3125C27.9791 21.7257 27.5034 21.25 26.9166 21.25C26.2628 21.2483 25.6947 21.6536 25.1841 22.062C25.1441 22.0942 25.1025 22.1255 25.0595 22.1562C24.0814 22.8549 21.8639 23.7292 16.9999 23.7292C12.136 23.7292 9.91843 22.8549 8.9404 22.1562C8.91799 22.1402 8.88126 22.1043 8.83554 22.0554C8.43508 21.6268 7.66979 21.2484 7.08325 21.25Z" fill=""/>
<path fill-rule="evenodd" clip-rule="evenodd" d="M7.08325 12.75C6.49645 12.75 6.02075 13.2257 6.02075 13.8125V16.9999H7.08325C6.02075 16.9999 6.02075 17.0025 6.02075 17.0025L6.02077 17.005L6.02079 17.0106L6.02098 17.0228L6.0218 17.0522C6.02262 17.0739 6.02402 17.1 6.02638 17.1301C6.03105 17.1903 6.03951 17.2668 6.05458 17.3572C6.08473 17.5383 6.14151 17.7754 6.24794 18.0491C6.46316 18.6026 6.87244 19.2812 7.63137 19.9317C9.14167 21.2263 11.9145 22.3124 16.9999 22.3124C22.0853 22.3124 24.8582 21.2263 26.3685 19.9317C27.1274 19.2812 27.5367 18.6026 27.7519 18.0491C27.8584 17.7754 27.9151 17.5383 27.9452 17.3572C27.9604 17.2668 27.9687 17.1903 27.9734 17.1301C27.9758 17.1 27.9772 17.0739 27.9781 17.0522L27.9788 17.0228L27.9791 17.0106V17.005V17.0025C27.9791 17.0025 27.9791 16.9999 26.9166 16.9999H27.9791V13.8125C27.9791 13.2257 27.5034 12.75 26.9166 12.75C26.2628 12.7482 25.6947 13.1535 25.1841 13.562C25.1441 13.5941 25.1025 13.6255 25.0595 13.6562C24.0814 14.3549 21.8639 15.2291 16.9999 15.2291C12.136 15.2291 9.91843 14.3549 8.9404 13.6562C8.91799 13.6402 8.88126 13.6042 8.83554 13.5553C8.43508 13.1267 7.66979 12.7484 7.08325 12.75Z" fill=""/>
<path fill-rule="evenodd" clip-rule="evenodd" d="M7.63136 5.56829C9.14165 4.27376 11.9145 3.1875 16.9999 3.1875C22.0853 3.1875 24.8582 4.27376 26.3685 5.56829C27.1274 6.2188 27.5367 6.89741 27.7519 7.45084C27.8584 7.72453 27.9151 7.96179 27.9452 8.1427C27.9604 8.23316 27.9687 8.30967 27.9734 8.36988C27.9768 8.41232 27.9789 8.45495 27.9791 8.49752C27.9791 8.53753 27.9778 8.57481 27.9734 8.63012C27.9687 8.69033 27.9604 8.76684 27.9452 8.8573C27.9151 9.03821 27.8584 9.27547 27.7519 9.54915C27.5367 10.1026 27.1274 10.7812 26.3685 11.4317C24.8582 12.7262 22.0853 13.8125 16.9999 13.8125C11.9145 13.8125 9.14165 12.7262 7.63136 11.4317C6.87244 10.7812 6.46316 10.1026 6.24794 9.54915C6.14151 9.27547 6.08473 9.03821 6.05457 8.8573C6.02535 8.68198 6.02047 8.57935 6.02076 8.49494C6.02157 8.37691 6.03519 8.25901 6.05457 8.1427C6.08473 7.96179 6.14151 7.72453 6.24794 7.45084C6.46316 6.89741 6.87244 6.2188 7.63136 5.56829Z" fill=""/>
</svg>
