<svg width="" height="" viewBox="0 0 38 38" fill="none" xmlns="http://www.w3.org/2000/svg">
<path d="M15.7129 16.7549C16.4614 18.0929 17.5694 19.2014 18.9072 19.9502C17.5696 20.6989 16.4614 21.8068 15.7129 23.1445C14.9641 21.8065 13.8556 20.6988 12.5176 19.9502C13.8559 19.2014 14.9641 18.0932 15.7129 16.7549Z" fill=""/>
<path fill-rule="evenodd" clip-rule="evenodd" d="M22.668 8.5C26.7348 8.5 29.4463 11.2115 29.4463 15.2783V23.4121C29.4462 27.4788 26.7348 30.1904 22.668 30.1904V33.0771C22.668 34.1616 21.4611 34.7986 20.5664 34.2021L14.5342 30.1904H9.11133C5.0448 30.1902 2.3341 27.4787 2.33398 23.4121V15.2783C2.33398 11.2116 5.04472 8.50021 9.11133 8.5H22.668ZM14.6602 12.7109C14.6602 16.1301 11.8927 18.8975 8.47363 18.8975V21.0029C11.8927 21.0029 14.6602 23.7703 14.6602 27.1895H16.7666C16.7666 23.7703 19.534 21.0029 22.9531 21.0029V18.8975L22.6348 18.8896C19.3637 18.7243 16.7666 16.0234 16.7666 12.7109H14.6602Z" fill=""/>
<path d="M27.6494 2.18457C32.9661 2.18457 35.6328 4.8513 35.6328 10.168V16.835C35.6327 20.1681 34.5998 22.4346 32.5332 23.6846C32.0332 23.9846 31.4502 23.5843 31.4502 23.001L31.4668 16.835C31.4668 10.1684 27.6499 6.35165 20.9834 6.35156L10.833 6.36816C10.2498 6.36805 9.84944 5.78413 10.1494 5.28418C11.3994 3.21758 13.6668 2.18457 16.9834 2.18457H27.6494Z" fill=""/>
</svg>
