<svg width="" height="" viewBox="0 0 34 34" fill="none" xmlns="http://www.w3.org/2000/svg">
<path d="M31.1669 12.0404C31.1669 16.6587 27.7669 20.4695 23.3469 21.1354V21.0504C22.9077 15.5537 18.4452 11.0912 12.906 10.652H12.8635C13.5294 6.23203 17.3402 2.83203 21.9585 2.83203C27.0444 2.83203 31.1669 6.95453 31.1669 12.0404Z" fill=""/>
<path d="M21.2218 21.2217C20.8677 16.7308 17.2693 13.1325 12.7785 12.7783C12.5377 12.7642 12.2827 12.75 12.0418 12.75C6.956 12.75 2.8335 16.8725 2.8335 21.9583C2.8335 27.0442 6.956 31.1667 12.0418 31.1667C17.1277 31.1667 21.2502 27.0442 21.2502 21.9583C21.2502 21.7175 21.236 21.4625 21.2218 21.2217ZM13.2885 23.205L12.0418 25.5L10.7952 23.205L8.50016 21.9583L10.7952 20.7117L12.0418 18.4167L13.2885 20.7117L15.5835 21.9583L13.2885 23.205Z" fill=""/>
</svg>
