<svg width="" height="" viewBox="0 0 38 38" fill="none" xmlns="http://www.w3.org/2000/svg">
<path d="M25.6338 3.16699C31.3971 3.16699 34.8332 6.60288 34.8174 12.3662V25.6348C34.8173 31.3979 31.3814 34.834 25.6182 34.834H12.3662C6.60304 34.834 3.16718 31.398 3.16699 25.6191V12.3662C3.16699 6.60288 6.60288 3.16699 12.3662 3.16699H25.6338ZM22.3887 10.6289H15.6299V8.28223H8.58594V15.3262H15.6299V12.9775H22.3887L25.0215 15.6113V22.3691H22.6738V24.7168H16.0469C15.5414 23.0202 13.9692 21.7823 12.1084 21.7822C9.83925 21.7824 7.99902 23.6224 7.99902 25.8916C7.99913 28.1607 9.83932 29.9999 12.1084 30C13.9695 29.9999 15.5417 28.7624 16.0469 27.0654L22.6738 27.0645V29.4131H29.7178V22.3691H27.3691V15.6094L31.1758 11.8037L26.1953 6.82324L22.3887 10.6289ZM12.1084 24.1309C13.0808 24.131 13.8691 24.9192 13.8691 25.8916C13.869 26.864 13.0807 27.6522 12.1084 27.6523C11.136 27.6522 10.3478 26.8641 10.3477 25.8916C10.3477 24.9192 11.136 24.131 12.1084 24.1309ZM27.8555 11.8037L26.1953 13.4639L24.5352 11.8037L26.1953 10.1436L27.8555 11.8037Z" fill=""/>
</svg>
